{
    "asset" : {
        "generator" : "Khronos glTF Blender I/O v0.9.36",
        "version" : "2.0"
    },
    "scene" : 0,
    "scenes" : [
        {
            "extras" : {
                "glTF2ExportSettings" : {
                    "export_all_influences" : 1,
                    "export_apply" : 0,
                    "export_current_frame" : 0,
                    "export_extras" : 1,
                    "export_force_sampling" : 1,
                    "export_format" : "GLTF_EMBEDDED",
                    "export_morph_tangent" : 1,
                    "export_selected" : 0,
                    "export_tangents" : 1
                }
            },
            "name" : "Scene",
            "nodes" : [
                0,
                1
            ]
        }
    ],
    "nodes" : [
        {
            "mesh" : 0,
            "name" : "Icosphere.005",
            "rotation" : [
                0,
                0.7019397616386414,
                0,
                -0.7122363448143005
            ],
            "scale" : [
                0.1315789371728897,
                0.2138577252626419,
                0.21385280787944794
            ],
            "translation" : [
                -0.7869424223899841,
                2.1640665531158447,
                -0.10821984708309174
            ]
        },
        {
            "mesh" : 1,
            "name" : "Icosphere.000",
            "rotation" : [
                0,
                -0.6362980604171753,
                0,
                -0.7714433073997498
            ],
            "scale" : [
                0.11040450632572174,
                0.15907002985477448,
                0.1590699851512909
            ],
            "translation" : [
                0.7743263244628906,
                2.184478759765625,
                0.269301176071167
            ]
        }
    ],
    "materials" : [
        {
            "doubleSided" : true,
            "name" : "Material.003",
            "pbrMetallicRoughness" : {
                "baseColorFactor" : [
                    0.6682623028755188,
                    0.824028491973877,
                    0.9794228672981262,
                    1
                ],
                "metallicFactor" : 0,
                "roughnessFactor" : 0.7590909004211426
            }
        }
    ],
    "meshes" : [
        {
            "name" : "Icosphere.006",
            "primitives" : [
                {
                    "attributes" : {
                        "POSITION" : 0,
                        "NORMAL" : 1
                    },
                    "indices" : 2,
                    "material" : 0
                }
            ]
        },
        {
            "name" : "Icosphere.000",
            "primitives" : [
                {
                    "attributes" : {
                        "POSITION" : 3,
                        "NORMAL" : 4
                    },
                    "indices" : 2,
                    "material" : 0
                }
            ]
        }
    ],
    "accessors" : [
        {
            "bufferView" : 0,
            "componentType" : 5126,
            "count" : 1032,
            "max" : [
                3.6467714309692383,
                3.178436517715454,
                4.048055171966553
            ],
            "min" : [
                -3.9685440063476562,
                -0.13313493132591248,
                -4.004860877990723
            ],
            "type" : "VEC3"
        },
        {
            "bufferView" : 1,
            "componentType" : 5126,
            "count" : 1032,
            "type" : "VEC3"
        },
        {
            "bufferView" : 2,
            "componentType" : 5123,
            "count" : 1098,
            "type" : "SCALAR"
        },
        {
            "bufferView" : 3,
            "componentType" : 5126,
            "count" : 1032,
            "max" : [
                3.6467714309692383,
                3.178436517715454,
                4.048055171966553
            ],
            "min" : [
                -3.9685440063476562,
                -0.13313493132591248,
                -4.004860877990723
            ],
            "type" : "VEC3"
        },
        {
            "bufferView" : 4,
            "componentType" : 5126,
            "count" : 1032,
            "type" : "VEC3"
        }
    ],
    "bufferViews" : [
        {
            "buffer" : 0,
            "byteLength" : 12384,
            "byteOffset" : 0
        },
        {
            "buffer" : 0,
            "byteLength" : 12384,
            "byteOffset" : 12384
        },
        {
            "buffer" : 0,
            "byteLength" : 2196,
            "byteOffset" : 24768
        },
        {
            "buffer" : 0,
            "byteLength" : 12384,
            "byteOffset" : 26964
        },
        {
            "buffer" : 0,
            "byteLength" : 12384,
            "byteOffset" : 39348
        }
    ],
    "buffers" : [
        {
            "byteLength" : 51732,
            "uri" : "data:application/octet-stream;base64,"
        }
    ]
}
