{
    "asset" : {
        "generator" : "Khronos glTF Blender I/O v0.9.36",
        "version" : "2.0"
    },
    "scene" : 0,
    "scenes" : [
        {
            "extras" : {
                "glTF2ExportSettings" : {
                    "export_all_influences" : 1,
                    "export_apply" : 0,
                    "export_current_frame" : 0,
                    "export_extras" : 1,
                    "export_force_sampling" : 1,
                    "export_format" : "GLTF_EMBEDDED",
                    "export_morph_tangent" : 1,
                    "export_selected" : 0,
                    "export_tangents" : 1
                }
            },
            "name" : "Scene",
            "nodes" : [
                0,
                1,
                2,
                3,
                4,
                5,
                6,
                7,
                8,
                9,
                10,
                11,
                12,
                13,
                14,
                15,
                16,
                17,
                18,
                19,
                20,
                21,
                22,
                23
            ]
        }
    ],
    "nodes" : [
        {
            "mesh" : 0,
            "name" : "Emitter",
            "rotation" : [
                0,
                0,
                -0.9916799068450928,
                -0.12872809171676636
            ],
            "scale" : [
                1.5916184186935425,
                1.5916184186935425,
                0.7809879183769226
            ],
            "translation" : [
                0,
                2.4928789138793945,
                0.08960802108049393
            ]
        },
        {
            "mesh" : 1,
            "name" : "Snow",
            "scale" : [
                0.023019900545477867,
                0.18991616368293762,
                0.022674743086099625
            ],
            "translation" : [
                -0.0026792287826538086,
                3.084700345993042,
                0
            ]
        },
        {
            "mesh" : 1,
            "name" : "Snow.001",
            "rotation" : [
                0,
                -0.7071068286895752,
                0,
                0.7071067094802856
            ],
            "scale" : [
                0.01578604243695736,
                0.13023622334003448,
                0.015549348667263985
            ],
            "translation" : [
                -0.5257127285003662,
                0.25287926197052,
                0.3508892059326172
            ]
        },
        {
            "mesh" : 1,
            "name" : "Snow.002",
            "rotation" : [
                0,
                -0.7071068286895752,
                0,
                0.7071067094802856
            ],
            "scale" : [
                0.015116263180971146,
                0.12471048533916473,
                0.01488961186259985
            ],
            "translation" : [
                -1.0145875215530396,
                0.4928792119026184,
                0.1573057472705841
            ]
        },
        {
            "mesh" : 1,
            "name" : "Snow.003",
            "rotation" : [
                0,
                -0.7071068286895752,
                0,
                0.7071067094802856
            ],
            "scale" : [
                0.00987020879983902,
                0.08143007755279541,
                0.009722216054797173
            ],
            "translation" : [
                -0.9321590662002563,
                0.7328791618347168,
                0.45099619030952454
            ]
        },
        {
            "mesh" : 1,
            "name" : "Snow.004",
            "rotation" : [
                0,
                -0.7071068286895752,
                0,
                0.7071067094802856
            ],
            "scale" : [
                0.017059113830327988,
                0.14073917269706726,
                0.016803331673145294
            ],
            "translation" : [
                0.16811388731002808,
                0.9728788733482361,
                -0.4913502335548401
            ]
        },
        {
            "mesh" : 1,
            "name" : "Snow.005",
            "rotation" : [
                0,
                -0.7071068286895752,
                0,
                0.7071067094802856
            ],
            "scale" : [
                0.011617754586040974,
                0.095847487449646,
                0.01144355908036232
            ],
            "translation" : [
                0.5687966346740723,
                1.212878704071045,
                -0.21613889932632446
            ]
        },
        {
            "mesh" : 1,
            "name" : "Snow.006",
            "rotation" : [
                0,
                -0.7071068286895752,
                0,
                0.7071067094802856
            ],
            "scale" : [
                0.016347447410225868,
                0.134867861866951,
                0.01610233448445797
            ],
            "translation" : [
                1.5703105926513672,
                1.4528785943984985,
                0.03915715590119362
            ]
        },
        {
            "mesh" : 1,
            "name" : "Snow.007",
            "rotation" : [
                0,
                -0.7071068286895752,
                0,
                0.7071067094802856
            ],
            "scale" : [
                0.017454633489251137,
                0.14400224387645721,
                0.017192920669913292
            ],
            "translation" : [
                -1.5325745344161987,
                1.6928796768188477,
                0.15509182214736938
            ]
        },
        {
            "mesh" : 1,
            "name" : "Snow.008",
            "rotation" : [
                0,
                -0.7071068286895752,
                0,
                0.7071067094802856
            ],
            "scale" : [
                0.0121126314625144,
                0.09993026405572891,
                0.011931016109883785
            ],
            "translation" : [
                -0.37691730260849,
                1.9328795671463013,
                -0.5168306827545166
            ]
        },
        {
            "mesh" : 1,
            "name" : "Snow.009",
            "rotation" : [
                0,
                -0.7071068286895752,
                0,
                0.7071067094802856
            ],
            "scale" : [
                0.012303132563829422,
                0.10150191187858582,
                0.012118660844862461
            ],
            "translation" : [
                0.15585817396640778,
                2.172879219055176,
                0.7798759341239929
            ]
        },
        {
            "mesh" : 1,
            "name" : "Snow.010",
            "rotation" : [
                0,
                -0.7071068286895752,
                0,
                0.7071067094802856
            ],
            "scale" : [
                0.012532648630440235,
                0.10339543968439102,
                0.01234473567456007
            ],
            "translation" : [
                1.0816519260406494,
                2.4128787517547607,
                0.010923855006694794
            ]
        },
        {
            "mesh" : 1,
            "name" : "Snow.011",
            "rotation" : [
                0,
                -0.7071068286895752,
                0,
                0.7071067094802856
            ],
            "scale" : [
                0.01578604243695736,
                0.13023622334003448,
                0.015549348667263985
            ],
            "translation" : [
                -0.5257127285003662,
                0.25287926197052,
                0.3508892059326172
            ]
        },
        {
            "mesh" : 1,
            "name" : "Snow.012",
            "rotation" : [
                0,
                -0.7071068286895752,
                0,
                0.7071067094802856
            ],
            "scale" : [
                0.015116263180971146,
                0.12471048533916473,
                0.01488961186259985
            ],
            "translation" : [
                -1.0145875215530396,
                0.4928792119026184,
                0.1573057472705841
            ]
        },
        {
            "mesh" : 1,
            "name" : "Snow.013",
            "rotation" : [
                0,
                -0.7071068286895752,
                0,
                0.7071067094802856
            ],
            "scale" : [
                0.00987020879983902,
                0.08143007755279541,
                0.009722216054797173
            ],
            "translation" : [
                -0.9321590662002563,
                0.7328791618347168,
                0.45099619030952454
            ]
        },
        {
            "mesh" : 1,
            "name" : "Snow.014",
            "rotation" : [
                0,
                -0.7071068286895752,
                0,
                0.7071067094802856
            ],
            "scale" : [
                0.017059113830327988,
                0.14073917269706726,
                0.016803331673145294
            ],
            "translation" : [
                0.16811388731002808,
                0.9728788733482361,
                -0.4913502335548401
            ]
        },
        {
            "mesh" : 1,
            "name" : "Snow.015",
            "rotation" : [
                0,
                -0.7071068286895752,
                0,
                0.7071067094802856
            ],
            "scale" : [
                0.011617754586040974,
                0.095847487449646,
                0.01144355908036232
            ],
            "translation" : [
                0.5687966346740723,
                1.212878704071045,
                -0.21613889932632446
            ]
        },
        {
            "mesh" : 1,
            "name" : "Snow.016",
            "rotation" : [
                0,
                -0.7071068286895752,
                0,
                0.7071067094802856
            ],
            "scale" : [
                0.016347447410225868,
                0.134867861866951,
                0.01610233448445797
            ],
            "translation" : [
                1.5703105926513672,
                1.4528785943984985,
                0.03915715590119362
            ]
        },
        {
            "mesh" : 1,
            "name" : "Snow.017",
            "rotation" : [
                0,
                -0.7071068286895752,
                0,
                0.7071067094802856
            ],
            "scale" : [
                0.017454633489251137,
                0.14400224387645721,
                0.017192920669913292
            ],
            "translation" : [
                -1.5325745344161987,
                1.6928796768188477,
                0.15509182214736938
            ]
        },
        {
            "mesh" : 1,
            "name" : "Snow.018",
            "rotation" : [
                0,
                -0.7071068286895752,
                0,
                0.7071067094802856
            ],
            "scale" : [
                0.0121126314625144,
                0.09993026405572891,
                0.011931016109883785
            ],
            "translation" : [
                -0.37691730260849,
                1.9328795671463013,
                -0.5168306827545166
            ]
        },
        {
            "mesh" : 1,
            "name" : "Snow.019",
            "rotation" : [
                0,
                -0.7071068286895752,
                0,
                0.7071067094802856
            ],
            "scale" : [
                0.012303132563829422,
                0.10150191187858582,
                0.012118660844862461
            ],
            "translation" : [
                0.15585817396640778,
                2.172879219055176,
                0.7798759341239929
            ]
        },
        {
            "mesh" : 1,
            "name" : "Snow.020",
            "rotation" : [
                0,
                -0.7071068286895752,
                0,
                0.7071067094802856
            ],
            "scale" : [
                0.012532648630440235,
                0.10339543968439102,
                0.01234473567456007
            ],
            "translation" : [
                1.0816519260406494,
                2.4128787517547607,
                0.010923855006694794
            ]
        },
        {
            "mesh" : 2,
            "name" : "Icosphere.001",
            "scale" : [
                0.8672637939453125,
                0.867262601852417,
                0.867262601852417
            ],
            "translation" : [
                -1.3514330387115479,
                3.2411327362060547,
                0
            ]
        },
        {
            "mesh" : 3,
            "name" : "Icosphere.005",
            "rotation" : [
                0,
                0.5868591070175171,
                0,
                0.8096890449523926
            ],
            "scale" : [
                0.27762168645858765,
                0.3999953269958496,
                0.39999526739120483
            ],
            "translation" : [
                0,
                2.243879556655884,
                0
            ]
        }
    ],
    "materials" : [
        {
            "doubleSided" : true,
            "name" : "Material.004",
            "pbrMetallicRoughness" : {
                "baseColorFactor" : [
                    0.3229619860649109,
                    0.40719759464263916,
                    0.799102783203125,
                    1
                ],
                "metallicFactor" : 0,
                "roughnessFactor" : 0.5
            }
        },
        {
            "doubleSided" : true,
            "name" : "Material.001",
            "pbrMetallicRoughness" : {
                "baseColorFactor" : [
                    1,
                    0.46061602234840393,
                    0.013660024851560593,
                    1
                ],
                "metallicFactor" : 0,
                "roughnessFactor" : 0.6545454263687134
            }
        },
        {
            "doubleSided" : true,
            "name" : "Material.003",
            "pbrMetallicRoughness" : {
                "baseColorFactor" : [
                    0.6682623028755188,
                    0.824028491973877,
                    0.9794228672981262,
                    1
                ],
                "metallicFactor" : 0,
                "roughnessFactor" : 0.7590909004211426
            }
        }
    ],
    "meshes" : [
        {
            "name" : "Plane.001",
            "primitives" : [
                {
                    "attributes" : {
                        "POSITION" : 0,
                        "NORMAL" : 1,
                        "TANGENT" : 2,
                        "TEXCOORD_0" : 3
                    },
                    "indices" : 4
                }
            ]
        },
        {
            "name" : "Cube",
            "primitives" : [
                {
                    "attributes" : {
                        "POSITION" : 5,
                        "NORMAL" : 6,
                        "TANGENT" : 7,
                        "TEXCOORD_0" : 8
                    },
                    "indices" : 9,
                    "material" : 0
                }
            ]
        },
        {
            "name" : "Icosphere.002",
            "primitives" : [
                {
                    "attributes" : {
                        "POSITION" : 10,
                        "NORMAL" : 11
                    },
                    "indices" : 12,
                    "material" : 1
                }
            ]
        },
        {
            "name" : "Icosphere.006",
            "primitives" : [
                {
                    "attributes" : {
                        "POSITION" : 13,
                        "NORMAL" : 14
                    },
                    "indices" : 15,
                    "material" : 2
                }
            ]
        }
    ],
    "accessors" : [
        {
            "bufferView" : 0,
            "componentType" : 5126,
            "count" : 8,
            "max" : [
                1,
                0,
                1
            ],
            "min" : [
                -1,
                0,
                -1
            ],
            "type" : "VEC3"
        },
        {
            "bufferView" : 1,
            "componentType" : 5126,
            "count" : 8,
            "type" : "VEC3"
        },
        {
            "bufferView" : 2,
            "componentType" : 5126,
            "count" : 8,
            "type" : "VEC4"
        },
        {
            "bufferView" : 3,
            "componentType" : 5126,
            "count" : 8,
            "type" : "VEC2"
        },
        {
            "bufferView" : 4,
            "componentType" : 5123,
            "count" : 12,
            "type" : "SCALAR"
        },
        {
            "bufferView" : 5,
            "componentType" : 5126,
            "count" : 704,
            "max" : [
                4.943042755126953,
                0.842261552810669,
                5.018270492553711
            ],
            "min" : [
                -4.943042755126953,
                -0.8360962867736816,
                -5.109128952026367
            ],
            "type" : "VEC3"
        },
        {
            "bufferView" : 6,
            "componentType" : 5126,
            "count" : 704,
            "type" : "VEC3"
        },
        {
            "bufferView" : 7,
            "componentType" : 5126,
            "count" : 704,
            "type" : "VEC4"
        },
        {
            "bufferView" : 8,
            "componentType" : 5126,
            "count" : 704,
            "type" : "VEC2"
        },
        {
            "bufferView" : 9,
            "componentType" : 5123,
            "count" : 792,
            "type" : "SCALAR"
        },
        {
            "bufferView" : 10,
            "componentType" : 5126,
            "count" : 406,
            "max" : [
                0.992935299873352,
                0.9587891101837158,
                0.9526508450508118
            ],
            "min" : [
                -0.9735677242279053,
                -0.9664810299873352,
                -0.9457138776779175
            ],
            "type" : "VEC3"
        },
        {
            "bufferView" : 11,
            "componentType" : 5126,
            "count" : 406,
            "type" : "VEC3"
        },
        {
            "bufferView" : 12,
            "componentType" : 5123,
            "count" : 444,
            "type" : "SCALAR"
        },
        {
            "bufferView" : 13,
            "componentType" : 5126,
            "count" : 1032,
            "max" : [
                3.6467714309692383,
                3.178436517715454,
                4.048055171966553
            ],
            "min" : [
                -3.9685440063476562,
                -0.13313493132591248,
                -4.004860877990723
            ],
            "type" : "VEC3"
        },
        {
            "bufferView" : 14,
            "componentType" : 5126,
            "count" : 1032,
            "type" : "VEC3"
        },
        {
            "bufferView" : 15,
            "componentType" : 5123,
            "count" : 1098,
            "type" : "SCALAR"
        }
    ],
    "bufferViews" : [
        {
            "buffer" : 0,
            "byteLength" : 96,
            "byteOffset" : 0
        },
        {
            "buffer" : 0,
            "byteLength" : 96,
            "byteOffset" : 96
        },
        {
            "buffer" : 0,
            "byteLength" : 128,
            "byteOffset" : 192
        },
        {
            "buffer" : 0,
            "byteLength" : 64,
            "byteOffset" : 320
        },
        {
            "buffer" : 0,
            "byteLength" : 24,
            "byteOffset" : 384
        },
        {
            "buffer" : 0,
            "byteLength" : 8448,
            "byteOffset" : 408
        },
        {
            "buffer" : 0,
            "byteLength" : 8448,
            "byteOffset" : 8856
        },
        {
            "buffer" : 0,
            "byteLength" : 11264,
            "byteOffset" : 17304
        },
        {
            "buffer" : 0,
            "byteLength" : 5632,
            "byteOffset" : 28568
        },
        {
            "buffer" : 0,
            "byteLength" : 1584,
            "byteOffset" : 34200
        },
        {
            "buffer" : 0,
            "byteLength" : 4872,
            "byteOffset" : 35784
        },
        {
            "buffer" : 0,
            "byteLength" : 4872,
            "byteOffset" : 40656
        },
        {
            "buffer" : 0,
            "byteLength" : 888,
            "byteOffset" : 45528
        },
        {
            "buffer" : 0,
            "byteLength" : 12384,
            "byteOffset" : 46416
        },
        {
            "buffer" : 0,
            "byteLength" : 12384,
            "byteOffset" : 58800
        },
        {
            "buffer" : 0,
            "byteLength" : 2196,
            "byteOffset" : 71184
        }
    ],
    "buffers" : [
        {
            "byteLength" : 73380,
            "uri" : "data:application/octet-stream;base64,"
        }
    ]
}
