{
    "asset" : {
        "generator" : "Khronos glTF Blender I/O v0.9.36",
        "version" : "2.0"
    },
    "scene" : 0,
    "scenes" : [
        {
            "extras" : {
                "glTF2ExportSettings" : {
                    "export_all_influences" : 1,
                    "export_apply" : 0,
                    "export_current_frame" : 0,
                    "export_extras" : 1,
                    "export_force_sampling" : 1,
                    "export_format" : "GLTF_EMBEDDED",
                    "export_morph_tangent" : 1,
                    "export_selected" : 0,
                    "export_tangents" : 1
                }
            },
            "name" : "Scene",
            "nodes" : [
                0
            ]
        }
    ],
    "nodes" : [
        {
            "mesh" : 0,
            "name" : "Icosphere.001",
            "scale" : [
                1.284736156463623,
                1.2847343683242798,
                1.2847343683242798
            ],
            "translation" : [
                -0.05922234058380127,
                2.965587854385376,
                0
            ]
        }
    ],
    "materials" : [
        {
            "doubleSided" : true,
            "name" : "Material.001",
            "pbrMetallicRoughness" : {
                "baseColorFactor" : [
                    1,
                    0.46061602234840393,
                    0.013660024851560593,
                    1
                ],
                "metallicFactor" : 0,
                "roughnessFactor" : 0.6545454263687134
            }
        }
    ],
    "meshes" : [
        {
            "name" : "Icosphere.002",
            "primitives" : [
                {
                    "attributes" : {
                        "POSITION" : 0,
                        "NORMAL" : 1
                    },
                    "indices" : 2,
                    "material" : 0
                }
            ]
        }
    ],
    "accessors" : [
        {
            "bufferView" : 0,
            "componentType" : 5126,
            "count" : 406,
            "max" : [
                0.992935299873352,
                0.9587891101837158,
                0.9526508450508118
            ],
            "min" : [
                -0.9735677242279053,
                -0.9664810299873352,
                -0.9457138776779175
            ],
            "type" : "VEC3"
        },
        {
            "bufferView" : 1,
            "componentType" : 5126,
            "count" : 406,
            "type" : "VEC3"
        },
        {
            "bufferView" : 2,
            "componentType" : 5123,
            "count" : 444,
            "type" : "SCALAR"
        }
    ],
    "bufferViews" : [
        {
            "buffer" : 0,
            "byteLength" : 4872,
            "byteOffset" : 0
        },
        {
            "buffer" : 0,
            "byteLength" : 4872,
            "byteOffset" : 4872
        },
        {
            "buffer" : 0,
            "byteLength" : 888,
            "byteOffset" : 9744
        }
    ],
    "buffers" : [
        {
            "byteLength" : 10632,
            "uri" : "data:application/octet-stream;base64,"
        }
    ]
}
