{
    "asset" : {
        "generator" : "Khronos glTF Blender I/O v0.9.36",
        "version" : "2.0"
    },
    "scene" : 0,
    "scenes" : [
        {
            "extras" : {
                "glTF2ExportSettings" : {
                    "export_all_influences" : 1,
                    "export_apply" : 1,
                    "export_current_frame" : 1,
                    "export_extras" : 1,
                    "export_force_sampling" : 1,
                    "export_format" : "GLTF_EMBEDDED",
                    "export_morph_tangent" : 1,
                    "export_selected" : 0,
                    "export_tangents" : 1
                }
            },
            "name" : "Scene",
            "nodes" : [
                0,
                1
            ]
        }
    ],
    "nodes" : [
        {
            "name" : "Rotator",
            "translation" : [
                0,
                2.243879556655884,
                0
            ]
        },
        {
            "mesh" : 0,
            "name" : "Icosphere.005",
            "rotation" : [
                0,
                0.5868591070175171,
                0,
                0.8096890449523926
            ],
            "scale" : [
                0.27762168645858765,
                0.3999953269958496,
                0.39999526739120483
            ],
            "translation" : [
                0,
                2.243879556655884,
                0
            ]
        }
    ],
    "animations" : [
        {
            "channels" : [
                {
                    "sampler" : 0,
                    "target" : {
                        "node" : 0,
                        "path" : "rotation"
                    }
                }
            ],
            "name" : "RotatorAction",
            "samplers" : [
                {
                    "input" : 3,
                    "interpolation" : "LINEAR",
                    "output" : 4
                }
            ]
        }
    ],
    "materials" : [
        {
            "doubleSided" : true,
            "name" : "Material.003",
            "pbrMetallicRoughness" : {}
        }
    ],
    "meshes" : [
        {
            "name" : "Icosphere.006",
            "primitives" : [
                {
                    "attributes" : {
                        "POSITION" : 0,
                        "NORMAL" : 1
                    },
                    "indices" : 2,
                    "material" : 0
                }
            ]
        }
    ],
    "accessors" : [
        {
            "bufferView" : 0,
            "componentType" : 5126,
            "count" : 1032,
            "max" : [
                3.950805902481079,
                3.178436517715454,
                4.048055171966553
            ],
            "min" : [
                -3.9333062171936035,
                -0.13313493132591248,
                -4.004860877990723
            ],
            "type" : "VEC3"
        },
        {
            "bufferView" : 1,
            "componentType" : 5126,
            "count" : 1032,
            "type" : "VEC3"
        },
        {
            "bufferView" : 2,
            "componentType" : 5123,
            "count" : 1098,
            "type" : "SCALAR"
        },
        {
            "bufferView" : 3,
            "componentType" : 5126,
            "count" : 31,
            "max" : [
                1.25
            ],
            "min" : [
                0
            ],
            "type" : "SCALAR"
        },
        {
            "bufferView" : 4,
            "componentType" : 5126,
            "count" : 31,
            "type" : "VEC4"
        }
    ],
    "bufferViews" : [
        {
            "buffer" : 0,
            "byteLength" : 12384,
            "byteOffset" : 0
        },
        {
            "buffer" : 0,
            "byteLength" : 12384,
            "byteOffset" : 12384
        },
        {
            "buffer" : 0,
            "byteLength" : 2196,
            "byteOffset" : 24768
        },
        {
            "buffer" : 0,
            "byteLength" : 124,
            "byteOffset" : 26964
        },
        {
            "buffer" : 0,
            "byteLength" : 496,
            "byteOffset" : 27088
        }
    ],
    "buffers" : [
        {
            "byteLength" : 27584,
            "uri" : "data:application/octet-stream;base64,"
        }
    ]
}
