{
    "asset" : {
        "generator" : "Khronos glTF Blender I/O v0.9.36",
        "version" : "2.0"
    },
    "scene" : 0,
    "scenes" : [
        {
            "name" : "Scene",
            "nodes" : [
                0
            ]
        }
    ],
    "nodes" : [
        {
            "mesh" : 0,
            "name" : "Text",
            "translation" : [
                2.9961769580841064,
                0.12289047241210938,
                1.6615221500396729
            ]
        }
    ],
    "materials" : [
        {
            "doubleSided" : true,
            "name" : "Material.001",
            "pbrMetallicRoughness" : {
                "baseColorFactor" : [
                    1,
                    1,
                    1,
                    1
                ],
                "metallicFactor" : 0,
                "roughnessFactor" : 0.746268630027771
            }
        }
    ],
    "meshes" : [
        {
            "name" : "Text.001",
            "primitives" : [
                {
                    "attributes" : {
                        "POSITION" : 0,
                        "NORMAL" : 1
                    },
                    "indices" : 2,
                    "material" : 0
                }
            ]
        }
    ],
    "accessors" : [
        {
            "bufferView" : 0,
            "componentType" : 5126,
            "count" : 10099,
            "max" : [
                2.714568853378296,
                0.9939469695091248,
                1.9694368839263916
            ],
            "min" : [
                -2.043431520462036,
                4.5672499254578725e-05,
                -1.9465632438659668
            ],
            "type" : "VEC3"
        },
        {
            "bufferView" : 1,
            "componentType" : 5126,
            "count" : 10099,
            "type" : "VEC3"
        },
        {
            "bufferView" : 2,
            "componentType" : 5123,
            "count" : 27492,
            "type" : "SCALAR"
        }
    ],
    "bufferViews" : [
        {
            "buffer" : 0,
            "byteLength" : 121188,
            "byteOffset" : 0
        },
        {
            "buffer" : 0,
            "byteLength" : 121188,
            "byteOffset" : 121188
        },
        {
            "buffer" : 0,
            "byteLength" : 54984,
            "byteOffset" : 242376
        }
    ],
    "buffers" : [
        {
            "byteLength" : 297360,
            "uri" : "data:application/octet-stream;base64,"
        }
    ]
}
