{
    "asset" : {
        "generator" : "Khronos glTF Blender I/O v1.0.5",
        "version" : "2.0"
    },
    "scene" : 0,
    "scenes" : [
        {
            "name" : "Scene",
            "nodes" : [
                0
            ]
        }
    ],
    "nodes" : [
        {
            "mesh" : 0,
            "name" : "Text",
            "translation" : [
                -0.003713846206665039,
                0.12289047241210938,
                0.00940847396850586
            ]
        }
    ],
    "materials" : [
        {
            "doubleSided" : true,
            "name" : "Material.001",
            "pbrMetallicRoughness" : {
                "baseColorFactor" : [
                    1,
                    1,
                    1,
                    1
                ],
                "metallicFactor" : 0,
                "roughnessFactor" : 0.746268630027771
            }
        }
    ],
    "meshes" : [
        {
            "name" : "Text.001",
            "primitives" : [
                {
                    "attributes" : {
                        "POSITION" : 0,
                        "NORMAL" : 1
                    },
                    "indices" : 2,
                    "material" : 0
                }
            ]
        }
    ],
    "accessors" : [
        {
            "bufferView" : 0,
            "componentType" : 5126,
            "count" : 9997,
            "max" : [
                2.714568853378296,
                0.8354202508926392,
                1.9694368839263916
            ],
            "min" : [
                -2.043431520462036,
                -0.10671138018369675,
                -1.9465632438659668
            ],
            "type" : "VEC3"
        },
        {
            "bufferView" : 1,
            "componentType" : 5126,
            "count" : 9997,
            "type" : "VEC3"
        },
        {
            "bufferView" : 2,
            "componentType" : 5123,
            "count" : 27492,
            "type" : "SCALAR"
        }
    ],
    "bufferViews" : [
        {
            "buffer" : 0,
            "byteLength" : 119964,
            "byteOffset" : 0
        },
        {
            "buffer" : 0,
            "byteLength" : 119964,
            "byteOffset" : 119964
        },
        {
            "buffer" : 0,
            "byteLength" : 54984,
            "byteOffset" : 239928
        }
    ],
    "buffers" : [
        {
            "byteLength" : 294912,
            "uri" : "data:application/octet-stream;base64,"
        }
    ]
}
