{
    "asset" : {
        "generator" : "Khronos glTF Blender I/O v1.0.5",
        "version" : "2.0"
    },
    "scene" : 0,
    "scenes" : [
        {
            "name" : "Scene",
            "nodes" : [
                0,
                1,
                2
            ]
        }
    ],
    "nodes" : [
        {
            "mesh" : 0,
            "name" : "Text"
        },
        {
            "name" : "Sun",
            "rotation" : [
                -0.09516770392656326,
                0.2099509835243225,
                -0.4017332196235657,
                0.886269748210907
            ],
            "translation" : [
                2.689544439315796,
                3.292768716812134,
                -1.010616660118103
            ]
        },
        {
            "name" : "Sun.001",
            "rotation" : [
                0.38565248250961304,
                -0.8507937788963318,
                -0.14737243950366974,
                0.32512062788009644
            ],
            "translation" : [
                -2.412440061569214,
                3.292768716812134,
                1.1899198293685913
            ]
        }
    ],
    "materials" : [
        {
            "doubleSided" : true,
            "name" : "Material.001",
            "pbrMetallicRoughness" : {
                "baseColorFactor" : [
                    1,
                    0.8002800345420837,
                    0.6506984829902649,
                    1
                ],
                "metallicFactor" : 0,
                "roughnessFactor" : 0.746268630027771
            }
        }
    ],
    "meshes" : [
        {
            "name" : "Text.001",
            "primitives" : [
                {
                    "attributes" : {
                        "POSITION" : 0,
                        "NORMAL" : 1
                    },
                    "indices" : 2,
                    "material" : 0
                }
            ]
        }
    ],
    "accessors" : [
        {
            "bufferView" : 0,
            "componentType" : 5126,
            "count" : 9997,
            "max" : [
                2.710855007171631,
                0.9583107233047485,
                1.9788453578948975
            ],
            "min" : [
                -2.047145366668701,
                0.016179092228412628,
                -1.937154769897461
            ],
            "type" : "VEC3"
        },
        {
            "bufferView" : 1,
            "componentType" : 5126,
            "count" : 9997,
            "type" : "VEC3"
        },
        {
            "bufferView" : 2,
            "componentType" : 5123,
            "count" : 27492,
            "type" : "SCALAR"
        }
    ],
    "bufferViews" : [
        {
            "buffer" : 0,
            "byteLength" : 119964,
            "byteOffset" : 0
        },
        {
            "buffer" : 0,
            "byteLength" : 119964,
            "byteOffset" : 119964
        },
        {
            "buffer" : 0,
            "byteLength" : 54984,
            "byteOffset" : 239928
        }
    ],
    "buffers" : [
        {
            "byteLength" : 294912,
            "uri" : "data:application/octet-stream;base64,"
        }
    ]
}
