{
    "asset" : {
        "generator" : "Khronos glTF Blender I/O v1.0.5",
        "version" : "2.0"
    },
    "scene" : 0,
    "scenes" : [
        {
            "name" : "Scene",
            "nodes" : [
                0
            ]
        }
    ],
    "nodes" : [
        {
            "mesh" : 0,
            "name" : "Text"
        }
    ],
    "materials" : [
        {
            "doubleSided" : true,
            "name" : "Material.001",
            "pbrMetallicRoughness" : {
                "baseColorFactor" : [
                    1,
                    0.8002800345420837,
                    0.6506984829902649,
                    1
                ],
                "metallicFactor" : 0,
                "roughnessFactor" : 0.746268630027771
            }
        }
    ],
    "meshes" : [
        {
            "name" : "Text.001",
            "primitives" : [
                {
                    "attributes" : {
                        "POSITION" : 0,
                        "NORMAL" : 1
                    },
                    "indices" : 2,
                    "material" : 0
                }
            ]
        }
    ],
    "accessors" : [
        {
            "bufferView" : 0,
            "componentType" : 5126,
            "count" : 9997,
            "max" : [
                2.710855007171631,
                1.937154769897461,
                0.9583107233047485
            ],
            "min" : [
                -2.047145366668701,
                -1.9788453578948975,
                0.016179092228412628
            ],
            "type" : "VEC3"
        },
        {
            "bufferView" : 1,
            "componentType" : 5126,
            "count" : 9997,
            "type" : "VEC3"
        },
        {
            "bufferView" : 2,
            "componentType" : 5123,
            "count" : 27492,
            "type" : "SCALAR"
        }
    ],
    "bufferViews" : [
        {
            "buffer" : 0,
            "byteLength" : 119964,
            "byteOffset" : 0
        },
        {
            "buffer" : 0,
            "byteLength" : 119964,
            "byteOffset" : 119964
        },
        {
            "buffer" : 0,
            "byteLength" : 54984,
            "byteOffset" : 239928
        }
    ],
    "buffers" : [
        {
            "byteLength" : 294912,
            "uri" : "data:application/octet-stream;base64,"
        }
    ]
}
