{
    "asset" : {
        "generator" : "Khronos glTF Blender I/O v0.9.36",
        "version" : "2.0"
    },
    "scene" : 0,
    "scenes" : [
        {
            "name" : "Scene",
            "nodes" : [
                2
            ]
        }
    ],
    "nodes" : [
        {
            "mesh" : 0,
            "name" : "okoSenca",
            "rotation" : [
                0,
                1,
                0,
                7.121489643379785e-15
            ]
        },
        {
            "mesh" : 1,
            "name" : "sarenica"
        },
        {
            "children" : [
                0,
                1
            ],
            "mesh" : 2,
            "name" : "oko",
            "rotation" : [
                -0.7071067690849304,
                0,
                0,
                0.7071067690849304
            ],
            "scale" : [
                2.4143683910369873,
                2.4143683910369873,
                2.4143683910369873
            ]
        }
    ],
    "animations" : [
        {
            "channels" : [
                {
                    "sampler" : 0,
                    "target" : {
                        "node" : 1,
                        "path" : "weights"
                    }
                }
            ],
            "name" : "KeyAction",
            "samplers" : [
                {
                    "input" : 12,
                    "interpolation" : "CUBICSPLINE",
                    "output" : 13
                }
            ]
        }
    ],
    "materials" : [
        {
            "alphaMode" : "BLEND",
            "name" : "okoSenca",
            "pbrMetallicRoughness" : {
                "baseColorFactor" : [
                    0.8000000715255737,
                    0.09993980079889297,
                    0.03158009424805641,
                    1
                ],
                "metallicFactor" : 0,
                "roughnessFactor" : 0.5
            }
        },
        {
            "alphaMode" : "BLEND",
            "name" : "sarenica",
            "pbrMetallicRoughness" : {}
        },
        {
            "alphaMode" : "BLEND",
            "name" : "eye01",
            "pbrMetallicRoughness" : {}
        }
    ],
    "meshes" : [
        {
            "name" : "Sphere.003",
            "primitives" : [
                {
                    "attributes" : {
                        "POSITION" : 0,
                        "NORMAL" : 1,
                        "TEXCOORD_0" : 2
                    },
                    "indices" : 3,
                    "material" : 0
                }
            ]
        },
        {
            "name" : "Sphere.002",
            "primitives" : [
                {
                    "attributes" : {
                        "POSITION" : 4,
                        "NORMAL" : 5,
                        "TEXCOORD_0" : 6
                    },
                    "indices" : 7,
                    "material" : 1
                }
            ]
        },
        {
            "name" : "Sphere",
            "primitives" : [
                {
                    "attributes" : {
                        "POSITION" : 8,
                        "NORMAL" : 9,
                        "TEXCOORD_0" : 10
                    },
                    "indices" : 11,
                    "material" : 2
                }
            ]
        }
    ],
    "accessors" : [
        {
            "bufferView" : 0,
            "componentType" : 5126,
            "count" : 206,
            "max" : [
                1.000000238418579,
                1,
                1.0000004768371582
            ],
            "min" : [
                -1.0000001192092896,
                -1.1012227535247803,
                -0.9999997019767761
            ],
            "type" : "VEC3"
        },
        {
            "bufferView" : 1,
            "componentType" : 5126,
            "count" : 206,
            "type" : "VEC3"
        },
        {
            "bufferView" : 2,
            "componentType" : 5126,
            "count" : 206,
            "type" : "VEC2"
        },
        {
            "bufferView" : 3,
            "componentType" : 5123,
            "count" : 1152,
            "type" : "SCALAR"
        },
        {
            "bufferView" : 4,
            "componentType" : 5126,
            "count" : 1177,
            "max" : [
                0.521796464920044,
                -0.6765643358230591,
                0.5218270421028137
            ],
            "min" : [
                -0.5217964053153992,
                -0.8235424757003784,
                -0.521765947341919
            ],
            "type" : "VEC3"
        },
        {
            "bufferView" : 5,
            "componentType" : 5126,
            "count" : 1177,
            "type" : "VEC3"
        },
        {
            "bufferView" : 6,
            "componentType" : 5126,
            "count" : 1177,
            "type" : "VEC2"
        },
        {
            "bufferView" : 7,
            "componentType" : 5123,
            "count" : 6336,
            "type" : "SCALAR"
        },
        {
            "bufferView" : 8,
            "componentType" : 5126,
            "count" : 3535,
            "max" : [
                0.9492232799530029,
                0.9947256445884705,
                0.9492234587669373
            ],
            "min" : [
                -0.9492231607437134,
                -1.0874563455581665,
                -0.9492228031158447
            ],
            "type" : "VEC3"
        },
        {
            "bufferView" : 9,
            "componentType" : 5126,
            "count" : 3535,
            "type" : "VEC3"
        },
        {
            "bufferView" : 10,
            "componentType" : 5126,
            "count" : 3535,
            "type" : "VEC2"
        },
        {
            "bufferView" : 11,
            "componentType" : 5123,
            "count" : 18720,
            "type" : "SCALAR"
        },
        {
            "bufferView" : 12,
            "componentType" : 5126,
            "count" : 9,
            "max" : [
                5
            ],
            "min" : [
                0
            ],
            "type" : "SCALAR"
        },
        {
            "bufferView" : 13,
            "componentType" : 5126,
            "count" : 27,
            "type" : "SCALAR"
        }
    ],
    "bufferViews" : [
        {
            "buffer" : 0,
            "byteLength" : 2472,
            "byteOffset" : 0
        },
        {
            "buffer" : 0,
            "byteLength" : 2472,
            "byteOffset" : 2472
        },
        {
            "buffer" : 0,
            "byteLength" : 1648,
            "byteOffset" : 4944
        },
        {
            "buffer" : 0,
            "byteLength" : 2304,
            "byteOffset" : 6592
        },
        {
            "buffer" : 0,
            "byteLength" : 14124,
            "byteOffset" : 8896
        },
        {
            "buffer" : 0,
            "byteLength" : 14124,
            "byteOffset" : 23020
        },
        {
            "buffer" : 0,
            "byteLength" : 9416,
            "byteOffset" : 37144
        },
        {
            "buffer" : 0,
            "byteLength" : 12672,
            "byteOffset" : 46560
        },
        {
            "buffer" : 0,
            "byteLength" : 42420,
            "byteOffset" : 59232
        },
        {
            "buffer" : 0,
            "byteLength" : 42420,
            "byteOffset" : 101652
        },
        {
            "buffer" : 0,
            "byteLength" : 28280,
            "byteOffset" : 144072
        },
        {
            "buffer" : 0,
            "byteLength" : 37440,
            "byteOffset" : 172352
        },
        {
            "buffer" : 0,
            "byteLength" : 36,
            "byteOffset" : 209792
        },
        {
            "buffer" : 0,
            "byteLength" : 108,
            "byteOffset" : 209828
        }
    ],
    "buffers" : [
        {
            "byteLength" : 209936,
            "uri" : "eye.bin"
        }
    ]
}
