{
    "asset" : {
        "generator" : "Khronos glTF Blender I/O v0.9.36",
        "version" : "2.0"
    },
    "scene" : 0,
    "scenes" : [
        {
            "name" : "Scene",
            "nodes" : [
                0
            ]
        }
    ],
    "nodes" : [
        {
            "mesh" : 0,
            "name" : "Plane",
            "scale" : [
                2.609442949295044,
                2.609442949295044,
                2.609442949295044
            ]
        }
    ],
    "materials" : [
        {
            "doubleSided" : true,
            "name" : "Material.001",
            "pbrMetallicRoughness" : {
                "baseColorTexture" : {
                    "index" : 0,
                    "texCoord" : 0
                },
                "metallicFactor" : 0,
                "roughnessFactor" : 1
            }
        },
        {
            "doubleSided" : true,
            "name" : "Material.002",
            "pbrMetallicRoughness" : {
                "baseColorFactor" : [
                    0.800000011920929,
                    0.800000011920929,
                    0.800000011920929,
                    1
                ],
                "metallicFactor" : 0,
                "roughnessFactor" : 0.5
            }
        }
    ],
    "meshes" : [
        {
            "name" : "Plane",
            "primitives" : [
                {
                    "attributes" : {
                        "POSITION" : 0,
                        "NORMAL" : 1,
                        "TEXCOORD_0" : 2
                    },
                    "indices" : 3,
                    "material" : 0
                },
                {
                    "attributes" : {
                        "POSITION" : 4,
                        "NORMAL" : 5,
                        "TEXCOORD_0" : 6
                    },
                    "indices" : 7,
                    "material" : 1
                }
            ]
        }
    ],
    "textures" : [
        {
            "source" : 0
        }
    ],
    "images" : [
        {
            "bufferView" : 4,
            "mimeType" : "image/png",
            "name" : "Color"
        }
    ],
    "accessors" : [
        {
            "bufferView" : 0,
            "componentType" : 5126,
            "count" : 3398,
            "max" : [
                1.0005371570587158,
                0.29519006609916687,
                0.6797303557395935
            ],
            "min" : [
                -1.000702977180481,
                0.20337337255477905,
                -1.3215587139129639
            ],
            "type" : "VEC3"
        },
        {
            "bufferView" : 1,
            "componentType" : 5126,
            "count" : 3398,
            "type" : "VEC3"
        },
        {
            "bufferView" : 2,
            "componentType" : 5126,
            "count" : 3398,
            "type" : "VEC2"
        },
        {
            "bufferView" : 3,
            "componentType" : 5123,
            "count" : 20043,
            "type" : "SCALAR"
        },
        {
            "bufferView" : 5,
            "componentType" : 5126,
            "count" : 121,
            "max" : [
                1.0005371570587158,
                0.28851425647735596,
                0.6797303557395935
            ],
            "min" : [
                -1.000702977180481,
                0.011313334107398987,
                -1.3215587139129639
            ],
            "type" : "VEC3"
        },
        {
            "bufferView" : 6,
            "componentType" : 5126,
            "count" : 121,
            "type" : "VEC3"
        },
        {
            "bufferView" : 7,
            "componentType" : 5126,
            "count" : 121,
            "type" : "VEC2"
        },
        {
            "bufferView" : 8,
            "componentType" : 5123,
            "count" : 381,
            "type" : "SCALAR"
        }
    ],
    "bufferViews" : [
        {
            "buffer" : 0,
            "byteLength" : 40776,
            "byteOffset" : 0
        },
        {
            "buffer" : 0,
            "byteLength" : 40776,
            "byteOffset" : 40776
        },
        {
            "buffer" : 0,
            "byteLength" : 27184,
            "byteOffset" : 81552
        },
        {
            "buffer" : 0,
            "byteLength" : 40086,
            "byteOffset" : 108736
        },
        {
            "buffer" : 0,
            "byteLength" : 1760230,
            "byteOffset" : 148824
        },
        {
            "buffer" : 0,
            "byteLength" : 1452,
            "byteOffset" : 1909056
        },
        {
            "buffer" : 0,
            "byteLength" : 1452,
            "byteOffset" : 1910508
        },
        {
            "buffer" : 0,
            "byteLength" : 968,
            "byteOffset" : 1911960
        },
        {
            "buffer" : 0,
            "byteLength" : 762,
            "byteOffset" : 1912928
        }
    ],
    "buffers" : [
        {
            "byteLength" : 1913692,
            "uri" : "data:application/octet-stream;base64,"
        }
    ]
}
