{
    "asset" : {
        "generator" : "Khronos glTF Blender I/O v0.9.36",
        "version" : "2.0"
    },
    "scene" : 0,
    "scenes" : [
        {
            "extras" : {
                "glTF2ExportSettings" : {
                    "export_all_influences" : 1,
                    "export_apply" : 1,
                    "export_current_frame" : 1,
                    "export_extras" : 1,
                    "export_force_sampling" : 1,
                    "export_format" : "GLTF_EMBEDDED",
                    "export_morph_tangent" : 1,
                    "export_tangents" : 1
                }
            },
            "name" : "Scene",
            "nodes" : [
                0,
                1,
                2,
                3,
                4
            ]
        }
    ],
    "nodes" : [
        {
            "mesh" : 0,
            "name" : "Emitter",
            "rotation" : [
                0,
                0,
                -1,
                -1.6292068494294654e-07
            ],
            "scale" : [
                1.5916184186935425,
                1.5916184186935425,
                0.7809879183769226
            ],
            "translation" : [
                0,
                2.4928789138793945,
                0.08960802108049393
            ]
        },
        {
            "name" : "Rotator",
            "translation" : [
                0,
                2.243879556655884,
                0
            ]
        },
        {
            "mesh" : 1,
            "name" : "Raindrop",
            "scale" : [
                0.059381574392318726,
                0.059381574392318726,
                0.059381574392318726
            ],
            "translation" : [
                -1.2934679985046387,
                2.678901195526123,
                0
            ]
        },
        {
            "mesh" : 2,
            "name" : "Icosphere.001",
            "scale" : [
                0.8672637939453125,
                0.867262601852417,
                0.867262601852417
            ],
            "translation" : [
                -1.3514330387115479,
                3.2411327362060547,
                0
            ]
        },
        {
            "mesh" : 3,
            "name" : "Icosphere.005",
            "rotation" : [
                0,
                0.5868591070175171,
                0,
                0.8096890449523926
            ],
            "scale" : [
                0.27762168645858765,
                0.3999953269958496,
                0.39999526739120483
            ],
            "translation" : [
                0,
                2.243879556655884,
                0
            ]
        }
    ],
    "animations" : [
        {
            "channels" : [
                {
                    "sampler" : 0,
                    "target" : {
                        "node" : 1,
                        "path" : "rotation"
                    }
                }
            ],
            "name" : "RotatorAction",
            "samplers" : [
                {
                    "input" : 14,
                    "interpolation" : "LINEAR",
                    "output" : 15
                }
            ]
        }
    ],
    "materials" : [
        {
            "doubleSided" : true,
            "name" : "Material.004",
            "pbrMetallicRoughness" : {}
        },
        {
            "doubleSided" : true,
            "emissiveFactor" : [
                1,
                0.698601245880127,
                0.06675177812576294
            ],
            "name" : "Material.001",
            "pbrMetallicRoughness" : {}
        },
        {
            "doubleSided" : true,
            "name" : "Material.003",
            "pbrMetallicRoughness" : {}
        }
    ],
    "meshes" : [
        {
            "name" : "Plane.001",
            "primitives" : [
                {
                    "attributes" : {
                        "POSITION" : 0,
                        "NORMAL" : 1,
                        "TANGENT" : 2,
                        "TEXCOORD_0" : 3
                    },
                    "indices" : 4
                }
            ]
        },
        {
            "name" : "Icosphere.001",
            "primitives" : [
                {
                    "attributes" : {
                        "POSITION" : 5,
                        "NORMAL" : 6
                    },
                    "indices" : 7,
                    "material" : 0
                }
            ]
        },
        {
            "name" : "Icosphere.002",
            "primitives" : [
                {
                    "attributes" : {
                        "POSITION" : 8,
                        "NORMAL" : 9
                    },
                    "indices" : 10,
                    "material" : 1
                }
            ]
        },
        {
            "name" : "Icosphere.006",
            "primitives" : [
                {
                    "attributes" : {
                        "POSITION" : 11,
                        "NORMAL" : 12
                    },
                    "indices" : 13,
                    "material" : 2
                }
            ]
        }
    ],
    "accessors" : [
        {
            "bufferView" : 0,
            "componentType" : 5126,
            "count" : 8,
            "max" : [
                1,
                0,
                1
            ],
            "min" : [
                -1,
                0,
                -1
            ],
            "type" : "VEC3"
        },
        {
            "bufferView" : 1,
            "componentType" : 5126,
            "count" : 8,
            "type" : "VEC3"
        },
        {
            "bufferView" : 2,
            "componentType" : 5126,
            "count" : 8,
            "type" : "VEC4"
        },
        {
            "bufferView" : 3,
            "componentType" : 5126,
            "count" : 8,
            "type" : "VEC2"
        },
        {
            "bufferView" : 4,
            "componentType" : 5123,
            "count" : 12,
            "type" : "SCALAR"
        },
        {
            "bufferView" : 5,
            "componentType" : 5126,
            "count" : 300,
            "max" : [
                0.9234101176261902,
                2.366938591003418,
                0.939674973487854
            ],
            "min" : [
                -0.9270450472831726,
                -0.7799040079116821,
                -0.9451992511749268
            ],
            "type" : "VEC3"
        },
        {
            "bufferView" : 6,
            "componentType" : 5126,
            "count" : 300,
            "type" : "VEC3"
        },
        {
            "bufferView" : 7,
            "componentType" : 5123,
            "count" : 318,
            "type" : "SCALAR"
        },
        {
            "bufferView" : 8,
            "componentType" : 5126,
            "count" : 406,
            "max" : [
                1.0501312017440796,
                1.0176407098770142,
                1.0087134838104248
            ],
            "min" : [
                -1.0277440547943115,
                -1.024985671043396,
                -1.0145583152770996
            ],
            "type" : "VEC3"
        },
        {
            "bufferView" : 9,
            "componentType" : 5126,
            "count" : 406,
            "type" : "VEC3"
        },
        {
            "bufferView" : 10,
            "componentType" : 5123,
            "count" : 444,
            "type" : "SCALAR"
        },
        {
            "bufferView" : 11,
            "componentType" : 5126,
            "count" : 1032,
            "max" : [
                3.950805902481079,
                3.178436517715454,
                4.048055171966553
            ],
            "min" : [
                -3.9333062171936035,
                -0.13313493132591248,
                -4.004860877990723
            ],
            "type" : "VEC3"
        },
        {
            "bufferView" : 12,
            "componentType" : 5126,
            "count" : 1032,
            "type" : "VEC3"
        },
        {
            "bufferView" : 13,
            "componentType" : 5123,
            "count" : 1098,
            "type" : "SCALAR"
        },
        {
            "bufferView" : 14,
            "componentType" : 5126,
            "count" : 31,
            "max" : [
                1.25
            ],
            "min" : [
                0
            ],
            "type" : "SCALAR"
        },
        {
            "bufferView" : 15,
            "componentType" : 5126,
            "count" : 31,
            "type" : "VEC4"
        }
    ],
    "bufferViews" : [
        {
            "buffer" : 0,
            "byteLength" : 96,
            "byteOffset" : 0
        },
        {
            "buffer" : 0,
            "byteLength" : 96,
            "byteOffset" : 96
        },
        {
            "buffer" : 0,
            "byteLength" : 128,
            "byteOffset" : 192
        },
        {
            "buffer" : 0,
            "byteLength" : 64,
            "byteOffset" : 320
        },
        {
            "buffer" : 0,
            "byteLength" : 24,
            "byteOffset" : 384
        },
        {
            "buffer" : 0,
            "byteLength" : 3600,
            "byteOffset" : 408
        },
        {
            "buffer" : 0,
            "byteLength" : 3600,
            "byteOffset" : 4008
        },
        {
            "buffer" : 0,
            "byteLength" : 636,
            "byteOffset" : 7608
        },
        {
            "buffer" : 0,
            "byteLength" : 4872,
            "byteOffset" : 8244
        },
        {
            "buffer" : 0,
            "byteLength" : 4872,
            "byteOffset" : 13116
        },
        {
            "buffer" : 0,
            "byteLength" : 888,
            "byteOffset" : 17988
        },
        {
            "buffer" : 0,
            "byteLength" : 12384,
            "byteOffset" : 18876
        },
        {
            "buffer" : 0,
            "byteLength" : 12384,
            "byteOffset" : 31260
        },
        {
            "buffer" : 0,
            "byteLength" : 2196,
            "byteOffset" : 43644
        },
        {
            "buffer" : 0,
            "byteLength" : 124,
            "byteOffset" : 45840
        },
        {
            "buffer" : 0,
            "byteLength" : 496,
            "byteOffset" : 45964
        }
    ],
    "buffers" : [
        {
            "byteLength" : 46460,
            "uri" : "data:application/octet-stream;base64,"
        }
    ]
}
