{
    "asset" : {
        "generator" : "Khronos glTF Blender I/O v0.9.36",
        "version" : "2.0"
    },
    "scene" : 0,
    "scenes" : [
        {
            "name" : "Scene",
            "nodes" : [
                0
            ]
        }
    ],
    "nodes" : [
        {
            "mesh" : 0,
            "name" : "XYZ Function",
            "rotation" : [
                0.7071067690849304,
                0,
                0,
                0.7071067690849304
            ]
        }
    ],
    "materials" : [
        {
            "doubleSided" : true,
            "name" : "Material.001",
            "pbrMetallicRoughness" : {
                "baseColorFactor" : [
                    0.8000000715255737,
                    0.5283515453338623,
                    0.1522749364376068,
                    1
                ],
                "metallicFactor" : 0,
                "roughnessFactor" : 0.5
            }
        }
    ],
    "meshes" : [
        {
            "name" : "XYZ Function",
            "primitives" : [
                {
                    "attributes" : {
                        "POSITION" : 0,
                        "NORMAL" : 1
                    },
                    "indices" : 2,
                    "material" : 0
                }
            ]
        }
    ],
    "accessors" : [
        {
            "bufferView" : 0,
            "componentType" : 5126,
            "count" : 16352,
            "max" : [
                2,
                1.6683768033981323,
                1.0000001192092896
            ],
            "min" : [
                -1.8480701446533203,
                -1.9615706205368042,
                -1.8027746677398682
            ],
            "type" : "VEC3"
        },
        {
            "bufferView" : 1,
            "componentType" : 5126,
            "count" : 16352,
            "type" : "VEC3"
        },
        {
            "bufferView" : 2,
            "componentType" : 5123,
            "count" : 24480,
            "type" : "SCALAR"
        }
    ],
    "bufferViews" : [
        {
            "buffer" : 0,
            "byteLength" : 196224,
            "byteOffset" : 0
        },
        {
            "buffer" : 0,
            "byteLength" : 196224,
            "byteOffset" : 196224
        },
        {
            "buffer" : 0,
            "byteLength" : 48960,
            "byteOffset" : 392448
        }
    ],
    "buffers" : [
        {
            "byteLength" : 441408,
            "uri" : "data:application/octet-stream;base64,"
        }
    ]
}
